# xmcd
# Copyright (C) 1995-1998 Ti Kan
#
# Track frame offsets:
#       150
#       1311
#       2543
#       3406
#       5023
#       6773
#       17469
#
# Disc length: 374 seconds
#
# Revision: 0
# Processed by: cddbd v1.5.2PL0 Copyright (c) Steve Scherf et al.
# Submitted via: CD-Import v1.0
#
DISCID=35017407
DTITLE=Seitenwind - 
DYEAR=1900
DGENRE=
TTITLE0=Seitenwindschluss Sponsor
TTITLE1=Seitenwimndanfang Sponsor
TTITLE2=Seitenwind
TTITLE3=Märli
TTITLE4=Klassiker
TTITLE5=Zwischenmusik Seitenwind
TTITLE6=Lesungshinweise Seitenwind
EXTD=
EXTT0=
EXTT1=
EXTT2=
EXTT3=
EXTT4=
EXTT5=
EXTT6=
PLAYORDER=
